Coordinates
version=1
nRows=6
nColumns=34
inDegrees=yes

Units are S.I. units (second, meters, Newtons, ...)
If the header above contains a line with 'inDegrees', this indicates whether rotational values are in degrees (yes) or radians (no).

endheader
time	pelvis_tilt	pelvis_list	pelvis_rotation	pelvis_tx	pelvis_ty	pelvis_tz	hip_flexion_r	hip_adduction_r	hip_rotation_r	knee_angle_r	ankle_angle_r	subtalar_angle_r	mtp_angle_r	hip_flexion_l	hip_adduction_l	hip_rotation_l	knee_angle_l	ankle_angle_l	subtalar_angle_l	mtp_angle_l	lumbar_extension	lumbar_bending	lumbar_rotation	arm_flex_r	arm_add_r	arm_rot_r	elbow_flex_r	pro_sup_r	arm_flex_l	arm_add_l	arm_rot_l	elbow_flex_l	pro_sup_l
      3.31666670	     -4.21727104	      2.79062366	      1.83245355	      1.90012654	      0.90998740	     -0.16157312	      3.00543767	    -11.06519498	    -14.12726164	     20.64941292	     10.70084741	      0.47467519	      0.00000000	      4.47758672	     -5.72708682	     -9.49421232	     19.34651546	      7.38519939	      8.96864261	      0.00000000	     -2.45725136	     -2.64169523	      5.60098106	     72.64312120	     -1.07590003	      5.11895698	    108.77137795	    100.19996997	     95.54502885	     -0.44648172	     30.98645257	     96.21131631	     89.24799957
      3.33333330	     -4.88145350	      2.89367340	      2.59450925	      1.90496075	      0.91936146	     -0.16157582	      1.85363578	    -10.52338248	    -14.35161857	     17.11846538	      6.65299302	     -0.21379958	      0.00000000	      3.71959383	     -5.25916171	     -8.99543746	     15.96188726	      3.35876363	      8.99108732	      0.00000000	     -1.23356406	     -3.29807552	      6.22983531	     81.04992781	     -2.49005254	      3.47385251	     98.99944273	     99.67216829	    100.77484454	      0.80954186	     29.82929870	     91.90688031	     89.41210794
      3.35000000	     -4.99393639	      2.95321465	      3.35371731	      1.90847064	      0.92911197	     -0.16177690	      0.24775019	     -9.96390336	    -14.50630191	     13.71971168	      2.31982230	     -1.06364628	      0.00000000	      2.71382144	     -4.86073295	     -8.35321318	     13.09847339	     -0.84528962	      8.65534265	      0.00000000	     -1.17763213	     -3.79815226	      6.36944801	     90.39811132	     -3.49273953	      2.98308984	     86.90511613	     98.61097693	    106.46379248	      1.65579434	     28.47329995	     87.33949440	     89.71266480
      3.36666670	     -5.61920619	      3.00556504	      3.88736169	      1.91170110	      0.93617769	     -0.16221290	     -0.32976659	     -9.64744900	    -14.56643346	     11.14051855	     -1.48681902	     -1.39795749	      0.00000000	      2.48034418	     -4.41644546	     -7.77304118	     10.69783759	     -4.52109695	      8.46265616	      0.00000000	     -0.40914597	     -4.77795155	      7.10940586	     99.37048807	     -5.25978899	      2.39700815	     72.70300971	     98.24871263	    111.38958145	      4.37180901	     26.81420499	     81.56981181	     89.60705215
      3.38333330	     -5.86910422	      3.02086350	      4.32974642	      1.91470109	      0.94098223	     -0.16280878	     -1.12591239	     -9.41063219	    -14.71328999	      8.88563286	     -5.46909680	     -1.57049641	      0.00000000	      2.08170657	     -4.03330825	     -7.25367170	      8.75003264	     -8.21093066	      7.85280276	      0.00000000	     -0.41804491	     -5.45916957	      7.65566084	    109.52694016	     -6.65732811	      4.52058403	     56.61418195	     97.69491413	    116.71260725	      6.15139708	     25.66627676	     76.65899430	     89.34338172
      3.40000000	     -6.32267920	      2.99701833	      4.69209360	      1.91879033	      0.94266279	     -0.16231906	     -1.41000458	     -9.26195393	    -14.75291414	      7.29129998	     -8.92496481	     -1.55833924	      0.00000000	      2.00449602	     -3.71776417	     -6.63272647	      7.15124388	    -11.26444935	      7.03940186	      0.00000000	     -0.17731430	     -6.33541734	      8.69808330	    119.61895533	     -8.41229797	      8.30605129	     40.81354322	     96.93320134	    122.03004106	      7.91268703	     25.73881478	     72.13112250	     88.87167850
